<?xml version="1.0" standalone="no"?>
<!DOCTYPE svg PUBLIC "-//W3C//DTD SVG 20010904//EN"
 "http://www.w3.org/TR/2001/REC-SVG-20010904/DTD/svg10.dtd">
<svg version="1.0" xmlns="http://www.w3.org/2000/svg"
 width="1024.000000pt" height="1024.000000pt" viewBox="0 0 1024.000000 1024.000000"
 preserveAspectRatio="xMidYMid meet">
<metadata>
Created by potrace 1.16, written by Peter Selinger 2001-2019
</metadata>
<g transform="translate(0.000000,1024.000000) scale(0.100000,-0.100000)"
fill="#000000" stroke="none">
<path d="M5072 7608 c-39 -46 -148 -177 -242 -293 -343 -419 -382 -465 -389
-465 -9 0 -146 139 -252 255 -35 39 -68 71 -74 73 -6 1 -21 -12 -34 -29 -14
-18 -103 -127 -200 -243 -97 -116 -195 -237 -218 -269 -23 -32 -88 -102 -145
-155 -84 -78 -355 -339 -803 -776 -44 -43 -49 -50 -20 -28 178 133 559 259
945 311 229 31 312 36 625 35 398 -1 614 -20 1360 -118 55 -7 101 -12 103 -10
2 1 -4 16 -13 34 -26 51 -55 179 -55 246 0 68 25 203 40 218 7 7 10 -24 10
-86 0 -151 45 -272 142 -382 l44 -49 139 -13 c213 -19 458 -34 576 -34 l107 0
6 31 c10 51 7 75 -14 133 -41 108 -102 162 -293 256 -65 33 -137 73 -160 90
l-42 31 -3 -40 c-4 -47 25 -119 74 -188 19 -27 30 -49 24 -51 -18 -6 -149 79
-185 120 -20 24 -48 65 -62 93 -22 43 -25 56 -18 110 16 135 22 124 -78 160
-81 31 -137 59 -137 70 0 8 115 78 183 111 86 41 187 58 297 51 307 -21 547
-267 566 -582 7 -111 -12 -210 -60 -312 l-35 -73 32 0 c198 0 618 75 775 137
94 38 70 36 -42 -3 -55 -19 -102 -33 -106 -32 -7 4 -184 197 -331 364 -207
234 -409 461 -434 489 -16 18 -84 76 -150 128 -107 84 -125 104 -160 166 -65
119 -43 127 -270 -94 -110 -107 -204 -193 -210 -191 -5 1 -22 24 -36 50 -15
26 -49 73 -76 104 -75 87 -544 641 -583 690 -18 23 -37 42 -41 42 -4 0 -39
-37 -77 -82z m154 -167 c115 -172 392 -582 447 -662 37 -53 67 -104 67 -113 0
-9 -22 -55 -50 -102 -27 -48 -51 -91 -52 -96 -3 -9 -203 189 -313 310 -26 28
-53 52 -60 52 -7 0 -48 -26 -91 -57 -151 -108 -314 -215 -324 -211 -5 2 42 59
106 128 63 69 127 140 141 158 26 33 26 33 8 72 -14 31 -16 52 -11 102 14 128
67 481 73 491 4 7 11 4 17 -7 6 -11 25 -39 42 -65z m-945 -534 c131 -145 145
-164 135 -182 -24 -44 -128 -185 -136 -185 -4 0 -38 36 -76 80 -37 44 -73 80
-79 80 -7 0 -32 -15 -56 -33 -66 -49 -124 -87 -133 -87 -4 0 26 37 68 82 69
74 76 85 76 122 0 47 41 286 50 285 3 0 71 -73 151 -162z"/>
<path d="M6690 5275 l0 -95 -45 0 c-38 0 -45 -3 -45 -20 0 -17 7 -20 45 -20
l45 0 0 -216 0 -216 39 -39 c36 -36 43 -39 95 -39 43 0 56 3 56 15 0 11 -11
15 -40 15 -30 0 -48 7 -75 31 l-35 31 0 209 0 209 70 0 c63 0 70 2 70 20 0 18
-7 20 -70 20 l-70 0 0 95 c0 88 -1 95 -20 95 -19 0 -20 -7 -20 -95z"/>
<path d="M2648 5176 c-56 -20 -111 -69 -143 -128 -27 -47 -30 -62 -30 -143 0
-103 15 -141 83 -210 40 -42 116 -75 171 -75 52 0 130 30 167 65 20 19 38 35
40 35 2 0 4 -61 4 -135 0 -128 1 -135 20 -135 20 0 20 7 20 365 0 358 0 365
-20 365 -17 0 -20 -7 -20 -52 l0 -52 -42 41 c-24 23 -60 49 -80 58 -45 18
-120 19 -170 1z m172 -41 c33 -17 73 -62 96 -105 22 -44 31 -183 14 -234 -28
-84 -102 -136 -197 -136 -155 0 -257 158 -209 323 40 137 182 210 296 152z"/>
<path d="M4285 5175 c-22 -8 -59 -34 -82 -59 l-43 -45 0 55 c0 47 -2 54 -20
54 -20 0 -20 -7 -20 -270 0 -263 0 -270 20 -270 19 0 20 7 20 163 0 186 10
230 64 289 35 38 100 64 130 52 12 -5 16 0 16 20 0 31 -22 33 -85 11z"/>
<path d="M4695 5183 c-34 -8 -110 -64 -134 -99 -80 -116 -71 -275 19 -378 93
-105 254 -112 351 -15 l39 39 0 -140 c0 -133 1 -140 20 -140 20 0 20 7 20 365
0 358 0 365 -20 365 -17 0 -20 -7 -20 -51 l0 -52 -45 44 c-25 24 -60 49 -78
56 -32 11 -114 15 -152 6z m164 -53 c82 -41 115 -116 110 -248 -4 -82 -7 -95
-34 -134 -43 -61 -95 -88 -170 -88 -49 0 -68 5 -103 28 -77 52 -112 118 -112
216 0 96 45 184 115 223 52 30 140 31 194 3z"/>
<path d="M7226 5180 c-71 -22 -145 -95 -171 -171 -18 -50 -20 -167 -3 -206 96
-227 389 -242 495 -26 90 185 -42 415 -236 412 -31 0 -69 -5 -85 -9z m200 -62
c69 -47 104 -117 104 -209 0 -80 -14 -120 -60 -173 -46 -52 -98 -76 -162 -76
-127 1 -216 88 -226 221 -11 158 85 268 234 269 53 0 68 -5 110 -32z"/>
<path d="M8584 5183 c-28 -5 -101 -68 -109 -93 -12 -38 -25 -20 -25 35 0 48
-2 55 -20 55 -20 0 -20 -5 -18 -272 3 -249 4 -271 21 -274 16 -2 17 11 17 151
0 194 9 240 61 299 40 45 103 74 135 62 10 -4 14 2 14 19 0 26 -17 30 -76 18z"/>
<path d="M3190 4989 c0 -121 4 -207 12 -232 24 -81 104 -137 196 -137 53 0
130 38 158 79 14 21 25 29 26 21 0 -8 2 -19 3 -25 2 -5 3 -20 4 -32 1 -13 7
-23 16 -23 13 0 15 37 15 270 0 263 0 270 -20 270 -19 0 -20 -7 -20 -187 0
-218 -9 -250 -81 -302 -36 -27 -51 -31 -105 -31 -57 0 -67 3 -100 32 -59 52
-64 74 -64 293 0 188 -1 195 -20 195 -19 0 -20 -7 -20 -191z"/>
<path d="M3850 4911 c0 -260 1 -269 20 -274 20 -5 20 0 20 269 0 267 0 274
-20 274 -20 0 -20 -7 -20 -269z"/>
<path d="M5242 4967 l3 -214 28 -42 c46 -70 120 -101 206 -86 43 7 121 53 121
71 0 6 6 17 14 24 13 10 15 4 18 -37 2 -35 7 -48 18 -48 13 0 15 38 18 273 2
267 2 272 -18 272 -19 0 -20 -6 -20 -185 0 -176 -1 -188 -24 -233 -35 -69 -77
-96 -157 -100 -63 -4 -68 -3 -104 29 -62 54 -69 82 -72 274 -2 94 -3 180 -3
193 0 13 -6 22 -16 22 -13 0 -15 -26 -12 -213z"/>
<path d="M5912 4908 c3 -235 5 -273 18 -273 13 0 15 38 18 273 2 268 2 272
-18 272 -20 0 -20 -4 -18 -272z"/>
<path d="M7750 4994 c0 -102 5 -205 11 -228 15 -61 59 -111 116 -130 91 -31
163 -14 224 51 42 45 46 44 51 -17 2 -23 8 -35 18 -35 13 0 15 36 17 258 1
142 0 264 -4 272 -3 8 -11 15 -18 15 -10 0 -14 -43 -17 -182 -4 -195 -13 -235
-61 -286 -74 -80 -197 -73 -263 14 l-29 37 -3 209 c-3 198 -4 208 -23 208 -18
0 -19 -8 -19 -186z"/>
</g>
</svg>
