<?xml version="1.0" standalone="no"?>
<!DOCTYPE svg PUBLIC "-//W3C//DTD SVG 20010904//EN"
 "http://www.w3.org/TR/2001/REC-SVG-20010904/DTD/svg10.dtd">
<svg version="1.0" xmlns="http://www.w3.org/2000/svg"
 width="732.000000pt" height="657.000000pt" viewBox="0 0 732.000000 657.000000"
 preserveAspectRatio="xMidYMid meet">
<metadata>
Created by potrace 1.16, written by Peter Selinger 2001-2019
</metadata>
<g transform="translate(0.000000,657.000000) scale(0.100000,-0.100000)"
fill="#000000" stroke="none">
<path d="M5841 6414 c-17 -14 -31 -30 -31 -35 0 -5 -19 -29 -42 -54 -24 -25
-59 -76 -79 -113 -34 -64 -56 -102 -148 -257 -46 -79 -110 -207 -135 -275 -24
-65 -78 -134 -121 -154 -42 -20 -102 -15 -150 14 -17 11 -66 32 -110 49 -44
16 -106 41 -138 55 -59 27 -280 86 -392 105 -33 6 -122 18 -197 27 l-137 17
-6 31 c-4 17 -17 54 -30 81 -13 28 -27 63 -30 78 -3 16 -24 48 -47 73 -56 60
-154 92 -311 99 -108 6 -159 -2 -287 -40 -8 -2 -41 -11 -72 -20 -32 -8 -79
-25 -105 -36 -26 -11 -64 -27 -83 -35 -166 -72 -264 -135 -357 -231 -78 -79
-105 -136 -84 -177 5 -12 17 -57 26 -101 31 -152 27 -193 -22 -219 -34 -18
-182 -161 -245 -236 -108 -130 -118 -142 -175 -225 -32 -47 -113 -186 -113
-194 0 -4 -12 -24 -27 -46 -45 -67 -78 -136 -108 -225 -15 -47 -36 -101 -46
-121 -11 -20 -19 -53 -19 -73 0 -40 -17 -54 -48 -37 -35 19 -267 52 -427 61
-88 5 -194 13 -235 17 -124 12 -152 10 -187 -17 -18 -13 -33 -31 -33 -40 0
-10 22 -50 49 -91 26 -41 65 -101 87 -134 34 -54 204 -279 286 -380 18 -22 71
-87 117 -145 47 -58 95 -116 108 -129 13 -13 23 -29 23 -36 0 -6 -26 -42 -58
-81 -85 -101 -136 -188 -169 -286 -15 -48 -33 -88 -39 -88 -11 0 -19 12 -71
115 -14 28 -28 52 -32 55 -3 3 -17 25 -30 50 -14 25 -41 69 -60 99 -20 29 -40
61 -46 70 -5 9 -26 36 -46 61 -19 25 -46 63 -59 85 -25 41 -100 149 -121 173
-6 7 -14 11 -17 7 -4 -3 -1 -10 7 -14 10 -7 10 -9 -1 -14 -15 -5 -21 -88 -21
-282 0 -157 22 -381 57 -580 8 -44 19 -111 26 -150 7 -38 17 -79 22 -89 14
-26 17 -95 6 -124 -4 -13 -26 -42 -48 -65 -22 -23 -40 -45 -40 -49 0 -4 -28
-52 -63 -106 -108 -170 -193 -356 -267 -582 -28 -89 -78 -329 -85 -415 -20
-249 -16 -282 39 -308 42 -19 139 -68 265 -133 58 -30 108 -54 113 -54 4 0 27
-9 51 -19 64 -30 252 -85 412 -121 22 -5 65 -17 95 -26 153 -44 410 -97 545
-112 55 -6 159 -18 230 -27 72 -8 187 -14 256 -13 72 1 138 -3 155 -9 65 -25
314 -53 422 -48 119 6 285 31 497 76 55 11 132 26 170 34 257 49 555 137 955
282 69 25 145 51 170 58 84 25 221 84 255 109 18 14 40 26 49 26 17 0 223
-170 336 -278 l77 -73 59 7 c32 4 86 7 119 8 74 2 139 33 238 114 75 61 110
100 101 113 -3 5 11 18 30 30 20 12 36 26 37 32 3 35 -7 73 -47 174 -24 62
-44 120 -44 130 0 10 -7 27 -15 37 -8 11 -15 26 -15 35 0 16 -38 105 -116 276
-16 33 -29 68 -30 78 -1 9 -8 25 -16 35 -9 9 -18 34 -22 55 -4 20 -11 37 -16
37 -6 0 -10 9 -10 21 0 20 -11 50 -45 124 -19 40 -52 135 -75 213 -11 35 -23
69 -28 75 -5 7 -14 30 -20 52 -6 22 -22 78 -36 125 -14 47 -30 103 -35 125 -5
22 -15 58 -21 80 -20 70 -40 157 -60 255 -11 52 -25 104 -30 115 -5 11 -10 29
-9 40 0 23 -15 94 -32 145 -6 19 -13 62 -16 96 l-4 61 88 18 c48 9 106 18 128
20 120 10 368 112 544 224 61 39 127 80 148 91 134 73 174 100 266 180 185
161 295 286 332 378 12 31 38 81 58 110 36 52 70 143 87 231 7 40 -7 161 -26
226 -11 35 -72 128 -115 175 -22 25 -52 58 -66 73 -32 35 -116 78 -213 107
-41 13 -97 33 -125 46 -133 59 -199 76 -310 83 l-110 6 -7 125 c-3 69 -15 186
-26 260 -32 207 -32 212 -37 255 -7 71 -23 159 -34 190 -6 17 -9 37 -8 45 1 8
-3 38 -10 65 -35 153 -45 206 -39 220 3 9 -1 32 -9 52 -8 19 -15 42 -15 50 0
17 -49 83 -62 83 -5 0 -28 9 -50 20 -52 25 -50 25 -87 -6z m108 -354 c7 -41
18 -120 26 -175 17 -115 21 -141 34 -210 6 -27 15 -84 21 -125 16 -102 18
-117 41 -258 10 -67 19 -142 19 -167 l0 -44 -42 -4 c-24 -3 -56 -5 -73 -4 -96
2 -246 -7 -313 -19 -42 -8 -82 -14 -89 -14 -6 0 -16 30 -23 71 -7 43 -27 102
-51 149 -41 81 -45 100 -30 116 10 10 23 33 157 284 48 91 93 171 100 177 7 7
16 23 20 35 4 13 21 44 38 70 17 26 53 85 81 132 58 101 67 99 84 -14z m-2099
25 c84 -18 130 -46 130 -80 0 -15 -17 -41 -45 -69 -25 -26 -45 -51 -45 -56 0
-5 -12 -13 -27 -16 -16 -4 -35 -12 -43 -18 -23 -18 -229 -113 -306 -141 -38
-14 -81 -34 -96 -45 -15 -11 -35 -20 -44 -20 -17 0 -62 -11 -147 -36 -26 -7
-96 -19 -156 -25 -95 -10 -116 -9 -159 5 -28 10 -53 24 -56 33 -15 38 92 148
241 250 99 68 364 175 527 212 102 24 137 25 226 6z m220 -334 c31 -95 22
-117 -74 -171 -39 -22 -91 -51 -115 -65 -71 -42 -254 -122 -357 -156 l-96 -32
-245 6 c-204 4 -248 7 -261 20 -18 19 -42 83 -42 116 0 19 4 22 23 18 90 -23
226 -15 382 20 136 30 270 65 280 72 5 4 35 13 65 20 73 17 280 119 355 176
33 25 60 45 61 45 1 0 12 -31 24 -69z m315 -121 c445 -84 422 -78 620 -176
114 -56 141 -74 216 -146 91 -89 166 -188 192 -254 l15 -41 -31 -11 c-64 -22
-170 -42 -227 -42 -32 0 -61 -4 -64 -9 -3 -5 -20 -11 -38 -14 -18 -3 -51 -10
-73 -15 -22 -5 -85 -19 -140 -31 -149 -32 -180 -40 -295 -76 -233 -73 -486
-157 -519 -172 -62 -28 -104 -43 -157 -58 -28 -8 -76 -25 -105 -38 -30 -14
-110 -48 -179 -77 -69 -28 -156 -67 -195 -85 -38 -18 -79 -35 -91 -39 -20 -6
-182 -91 -289 -150 -27 -16 -116 -71 -196 -122 -81 -52 -156 -94 -167 -94 -11
0 -33 5 -47 10 -30 11 -152 45 -235 65 -65 16 -129 34 -150 42 -8 3 -20 5 -27
4 -37 -6 -24 32 120 329 80 166 183 340 265 447 23 30 42 59 42 63 0 11 215
286 232 296 4 3 24 -3 45 -12 97 -42 160 -55 298 -61 260 -11 495 32 617 112
116 77 136 91 177 129 48 46 141 172 141 192 0 7 5 25 12 40 12 25 14 26 73
20 33 -4 105 -15 160 -26z m1780 -751 c104 -11 231 -36 325 -63 30 -9 87 -23
125 -31 197 -43 217 -49 264 -84 138 -103 160 -166 128 -361 -11 -64 -21 -87
-68 -157 -78 -117 -151 -191 -471 -475 -164 -146 -179 -156 -473 -313 -93 -50
-455 -128 -480 -103 -24 22 -94 411 -95 523 0 39 -5 90 -11 115 -5 24 -7 55
-4 67 5 22 10 23 88 23 108 0 160 14 152 41 -6 18 -1 19 72 19 48 1 85 6 95
14 16 12 15 15 -15 44 -31 30 -97 52 -157 51 -14 0 -86 0 -160 0 -74 1 -148
-1 -165 -3 -16 -3 -86 -7 -155 -10 -131 -7 -248 -20 -314 -37 -21 -6 -71 -17
-110 -24 -90 -17 -177 -38 -241 -58 -27 -9 -79 -23 -115 -32 -76 -19 -295 -99
-430 -157 -136 -58 -344 -162 -371 -184 -8 -8 -22 -14 -30 -14 -8 0 -19 -4
-25 -9 -5 -4 -38 -24 -74 -43 -36 -20 -90 -51 -122 -69 -135 -81 -156 -94
-208 -127 -149 -95 -197 -132 -308 -235 -65 -62 -151 -148 -191 -192 -39 -44
-87 -91 -106 -105 -18 -14 -36 -33 -38 -42 -6 -21 40 -58 71 -58 21 0 132 81
220 162 79 71 79 71 101 -67 5 -33 13 -100 16 -150 4 -49 13 -137 21 -195 27
-193 33 -253 28 -262 -8 -13 -119 -66 -184 -88 -138 -47 -331 -87 -466 -98
-110 -9 -271 0 -310 17 -31 13 -122 129 -260 331 l-79 115 1 70 c1 67 5 78 73
210 104 204 180 314 297 430 127 126 142 139 370 294 118 81 278 194 284 200
3 4 25 19 50 36 25 16 63 43 85 60 40 31 150 98 235 143 25 14 70 38 100 55
138 76 556 282 715 353 273 121 808 302 1050 354 407 88 644 128 795 133 122
4 375 -3 475 -14z m-4695 -819 c47 -6 140 -17 207 -25 110 -13 495 -90 568
-114 17 -5 75 -17 130 -27 55 -10 104 -20 108 -24 4 -4 -5 -15 -20 -25 -15
-10 -73 -55 -128 -100 -55 -45 -136 -108 -180 -140 -44 -32 -135 -105 -203
-163 -140 -119 -128 -118 -198 -12 -23 36 -52 75 -63 87 -12 12 -21 25 -21 28
0 3 -18 30 -40 60 -22 30 -40 58 -40 64 0 5 -3 11 -8 13 -4 2 -27 35 -52 73
-25 39 -48 72 -52 73 -5 2 -8 8 -8 13 0 6 -18 34 -40 64 -22 30 -40 57 -40 60
0 3 -19 31 -41 62 l-41 55 38 -6 c22 -3 77 -10 124 -16z m3767 -133 c6 -7 14
-46 17 -87 3 -41 10 -140 16 -220 6 -80 15 -165 20 -190 5 -25 16 -78 25 -117
32 -153 46 -219 55 -253 5 -19 16 -80 25 -135 22 -139 62 -330 95 -460 29
-111 43 -157 84 -275 13 -36 31 -90 40 -120 19 -59 27 -81 44 -120 21 -45 92
-234 92 -242 0 -4 12 -33 26 -65 46 -104 52 -117 78 -175 14 -31 26 -62 26
-67 0 -6 5 -11 10 -11 6 0 10 -6 10 -13 0 -7 11 -37 25 -65 14 -29 25 -58 25
-66 0 -8 4 -17 9 -20 5 -4 12 -25 16 -49 8 -51 24 -115 36 -142 4 -11 16 -45
24 -75 9 -30 25 -72 36 -93 34 -70 30 -78 -72 -125 -51 -23 -95 -42 -99 -42
-3 0 -13 12 -21 27 -36 72 -176 302 -206 340 -18 23 -33 44 -33 48 0 10 -75
113 -120 165 -21 25 -54 64 -72 87 -69 87 -336 389 -423 479 -53 54 -217 201
-335 299 -52 43 -102 86 -111 94 -108 106 -584 488 -621 498 -10 3 -18 9 -18
14 0 5 -5 9 -10 9 -6 0 -45 22 -88 48 -42 27 -84 51 -92 55 -19 9 -54 30 -60
38 -29 34 -231 129 -274 129 -10 0 -56 18 -102 40 -47 22 -90 40 -97 40 -7 0
-17 4 -23 8 -5 4 -35 16 -68 27 -32 11 -52 21 -45 24 8 2 28 14 44 26 17 12
52 29 78 38 40 13 124 58 387 204 14 8 48 28 75 44 79 47 266 139 284 139 21
1 101 30 176 65 165 76 342 134 590 195 138 33 198 45 335 63 49 7 175 -4 187
-16z m-4107 -751 c0 -8 24 -52 138 -256 28 -50 136 -219 152 -237 5 -7 10 -15
10 -18 0 -6 81 -127 90 -135 3 -3 16 -22 29 -43 13 -21 28 -43 34 -50 25 -26
91 -111 242 -312 192 -256 270 -350 400 -480 85 -86 272 -236 406 -324 34 -23
36 -27 28 -60 -13 -57 -90 -201 -128 -240 -20 -20 -72 -67 -116 -106 -43 -38
-97 -86 -120 -106 -60 -53 -122 -86 -198 -103 -106 -25 -107 -25 -166 54 -58
78 -166 238 -195 291 -11 19 -42 72 -68 118 -87 152 -146 286 -209 476 -22 66
-44 129 -49 140 -16 34 -90 267 -90 282 0 7 -4 21 -9 31 -18 37 -96 324 -135
502 -29 131 -53 297 -60 416 -3 45 -8 110 -11 145 -7 60 -6 63 9 44 8 -11 16
-24 16 -29z m1950 -97 c0 -5 4 -9 10 -9 5 0 33 -11 62 -24 61 -28 142 -56 164
-56 30 0 158 -74 342 -199 46 -31 91 -60 100 -66 10 -5 19 -12 22 -15 3 -3 46
-35 95 -70 96 -69 344 -257 384 -291 13 -11 58 -48 100 -82 67 -55 222 -186
335 -284 215 -186 453 -422 567 -563 145 -178 397 -547 492 -721 l36 -65 -55
-44 c-31 -24 -60 -53 -65 -63 -9 -16 -20 -9 -96 63 -113 107 -232 207 -362
305 -130 98 -304 215 -319 215 -5 0 -12 3 -14 8 -5 12 -80 58 -223 136 -11 6
-22 13 -25 16 -3 3 -14 10 -25 16 -101 55 -147 82 -190 111 -27 18 -53 33 -57
33 -5 0 -45 23 -90 51 -46 29 -101 62 -123 74 -22 12 -61 34 -88 49 -26 14
-71 41 -100 59 -52 33 -110 67 -177 103 -19 11 -37 22 -40 25 -3 3 -30 19 -60
35 -30 16 -57 31 -60 35 -3 3 -12 9 -20 12 -8 4 -60 32 -115 61 -55 30 -158
84 -230 120 l-130 66 -2 67 c-2 37 -7 71 -13 77 -5 5 -10 24 -10 41 0 36 -23
197 -38 265 -34 152 -58 257 -79 344 -23 95 -23 100 -7 135 24 49 41 61 76 49
15 -6 28 -14 28 -19z m26 -1008 c5 -5 74 -42 154 -83 80 -41 175 -93 211 -116
36 -23 69 -42 72 -42 4 0 63 -36 132 -80 69 -44 128 -80 131 -80 3 0 16 -8 29
-18 l24 -19 -63 -11 c-130 -24 -235 -26 -316 -4 -79 20 -99 41 -61 62 48 25
18 82 -107 201 -54 52 -111 101 -127 109 -17 8 -32 17 -35 20 -12 12 -82 40
-100 40 -23 0 -35 16 -18 23 21 9 63 8 74 -2z m304 -474 c19 -7 40 -15 45 -19
6 -3 38 -11 72 -17 76 -14 191 -6 300 21 94 23 95 23 236 -64 43 -26 81 -48
84 -48 5 0 95 -54 112 -67 10 -7 -46 -39 -98 -56 -30 -9 -133 -33 -230 -52
-97 -19 -209 -42 -250 -51 -41 -10 -121 -18 -180 -18 -95 -1 -117 3 -211 33
-58 19 -109 38 -115 43 -6 5 3 32 24 71 36 68 156 237 168 237 5 0 24 -6 43
-13z m974 -267 c37 -22 70 -40 73 -40 3 0 17 -8 31 -19 15 -10 54 -33 87 -51
100 -54 101 -53 -27 -93 -62 -20 -158 -48 -213 -63 -55 -14 -140 -39 -190 -54
-348 -108 -541 -140 -850 -143 -163 -2 -209 1 -252 15 -101 33 -99 23 -36 145
50 99 122 232 130 242 2 4 18 -2 108 -40 11 -4 58 -20 106 -34 142 -42 253
-36 534 30 55 13 124 29 154 35 81 19 213 67 241 89 14 11 27 20 30 20 3 1 36
-17 74 -39z m375 -217 c25 -14 90 -55 144 -90 88 -57 115 -83 86 -83 -6 0 -25
-11 -43 -25 -18 -14 -36 -25 -40 -25 -4 0 -33 -16 -64 -36 -144 -93 -433 -201
-623 -234 -25 -5 -63 -13 -85 -18 -61 -15 -203 -31 -394 -43 -96 -6 -220 -15
-275 -19 -132 -9 -671 -7 -681 3 -5 4 18 59 49 122 31 62 57 121 57 129 0 9 4
16 8 16 4 0 14 16 21 35 14 39 21 41 59 21 94 -49 167 -59 402 -58 275 2 368
16 725 111 17 5 80 25 140 45 61 19 126 41 145 47 94 29 258 94 280 110 33 24
35 24 89 -8z m358 -239 c35 -25 62 -48 59 -51 -6 -6 -162 -49 -301 -84 -44
-10 -93 -24 -109 -29 -16 -5 -31 -8 -33 -6 -2 2 47 33 109 70 62 36 133 84
158 106 25 21 47 39 49 40 2 0 32 -21 68 -46z m-917 -343 c-25 -10 -67 -23
-95 -29 -27 -5 -77 -18 -109 -27 -57 -16 -197 -48 -281 -65 -22 -4 -89 -18
-150 -30 -60 -12 -137 -30 -170 -39 -52 -16 -178 -43 -255 -56 -35 -6 -287 -6
-338 0 -45 5 -122 23 -122 29 0 7 39 101 64 154 10 23 12 24 96 16 109 -10
507 -11 675 -2 417 23 509 29 589 43 49 8 91 17 94 20 3 3 15 5 26 5 13 -1 4
-8 -24 -19z"/>
<path d="M3355 2680 c-76 -12 -97 -23 -148 -80 -51 -57 -60 -93 -29 -128 25
-30 56 -32 60 -6 4 27 50 39 132 35 46 -2 63 -9 105 -40 97 -73 131 -116 169
-212 11 -30 22 -39 59 -52 60 -20 67 -11 61 78 -7 85 -44 206 -84 268 -33 53
-114 109 -191 131 -57 17 -59 17 -134 6z"/>
<path d="M410 4099 c-19 -12 -37 -25 -38 -30 -2 -5 -8 -6 -14 -3 -6 4 -8 -2
-3 -16 6 -18 4 -22 -7 -17 -8 3 -19 2 -25 -1 -12 -8 -43 -67 -43 -82 0 -7 -9
-25 -20 -40 -70 -99 -90 -479 -33 -625 39 -101 68 -148 104 -172 64 -42 69
-25 34 117 -19 78 -22 346 -6 459 18 117 50 229 77 271 14 21 23 44 19 50 -4
6 -1 17 5 25 7 8 10 21 7 29 -3 8 -1 16 4 18 13 4 0 38 -15 38 -6 0 -27 -10
-46 -21z"/>
<path d="M503 3898 c-15 -7 -25 -24 -29 -47 -4 -20 -11 -39 -16 -42 -5 -3 -10
-19 -13 -35 -2 -16 -9 -45 -15 -64 -16 -52 -22 -284 -9 -365 21 -136 124 -332
186 -356 53 -20 93 -4 64 26 -44 47 -87 183 -100 315 -9 97 -16 278 -13 325 4
54 9 83 16 94 15 24 26 135 14 148 -13 15 -54 16 -85 1z"/>
<path d="M686 3679 c-14 -17 -26 -43 -26 -59 0 -15 -6 -45 -13 -66 -10 -27
-13 -80 -11 -169 4 -167 30 -257 83 -286 18 -10 38 -16 45 -13 8 3 11 84 10
292 0 158 -1 297 -2 310 -3 35 -53 30 -86 -9z"/>
</g>
    <style>
        path { fill: #000; }
        @media (prefers-color-scheme: dark) {
            path { fill: #FFF; }
        }
    </style>
</svg>
