<?xml version="1.0" standalone="no"?>
<!DOCTYPE svg PUBLIC "-//W3C//DTD SVG 20010904//EN"
 "http://www.w3.org/TR/2001/REC-SVG-20010904/DTD/svg10.dtd">
<svg version="1.0" xmlns="http://www.w3.org/2000/svg"
 width="485.000000pt" height="235.000000pt" viewBox="0 0 485.000000 235.000000"
 preserveAspectRatio="xMidYMid meet">
<metadata>
Created by potrace 1.16, written by Peter Selinger 2001-2019
</metadata>
<g transform="translate(0.000000,235.000000) scale(0.100000,-0.100000)"
fill="#000000" stroke="none">
<path d="M766 1912 l-416 -245 0 -316 c0 -174 3 -393 7 -487 l6 -171 146 -82
c80 -45 200 -112 266 -150 66 -37 188 -106 272 -153 l151 -86 410 242 c226
132 411 246 412 251 1 6 -11 15 -27 21 -26 11 -48 0 -381 -196 -194 -114 -367
-215 -385 -225 l-33 -17 -385 218 -386 219 -7 444 c-4 244 -3 448 1 452 10 9
740 439 757 445 12 4 118 -54 586 -321 l195 -112 33 16 c26 12 30 17 20 27 -7
6 -121 72 -253 146 -132 75 -315 178 -406 230 l-166 95 -417 -245z"/>
<path d="M812 1832 l-371 -217 -1 -131 c0 -72 3 -266 7 -432 l6 -302 372 -210
372 -210 354 208 c195 115 362 213 373 219 14 7 15 11 5 15 -8 3 -169 -87
-359 -198 -190 -112 -353 -206 -363 -210 -12 -4 -50 12 -105 44 -87 50 -379
215 -544 308 l-88 49 -2 338 c-1 185 -3 374 -3 418 l0 81 354 209 c195 115
359 209 364 209 5 0 169 -90 363 -201 195 -110 362 -199 372 -197 11 2 -9 18
-53 42 -38 22 -185 104 -325 184 -140 79 -278 157 -306 173 l-51 29 -371 -218z"/>
<path d="M1104 1360 c-28 -11 -54 -48 -54 -77 0 -24 63 -216 80 -243 13 -22
22 -8 63 102 46 121 47 159 8 199 -30 29 -58 35 -97 19z m89 -38 c9 -8 17 -28
17 -43 0 -35 -59 -201 -70 -194 -4 2 -22 45 -40 95 -36 101 -35 131 8 154 29
16 57 12 85 -12z"/>
<path d="M1882 1318 c-15 -15 -16 -211 -2 -239 9 -16 22 -19 73 -19 36 0 68 5
75 12 9 9 15 9 24 0 7 -7 25 -12 41 -12 l28 0 -18 31 c-17 29 -17 31 0 40 14
8 17 24 17 92 0 51 -5 88 -12 95 -8 8 -48 12 -113 12 -65 0 -105 -4 -113 -12z
m178 -97 l0 -59 -40 5 c-38 5 -54 -7 -30 -22 21 -13 9 -25 -25 -25 l-35 0 0
80 0 80 65 0 65 0 0 -59z"/>
<path d="M2160 1207 c0 -82 4 -127 12 -135 16 -16 200 -16 216 0 8 8 12 53 12
135 l0 123 -25 0 -25 0 0 -105 0 -105 -70 0 -70 0 0 105 0 105 -25 0 -25 0 0
-123z"/>
<path d="M2440 1195 l0 -135 30 0 30 0 0 135 0 135 -30 0 -30 0 0 -135z"/>
<path d="M2540 1195 l0 -135 25 0 c23 0 25 4 25 40 l0 40 44 0 c37 0 48 -5 70
-31 14 -17 26 -35 26 -40 0 -5 11 -9 25 -9 21 0 25 5 25 28 0 15 -5 33 -12 40
-9 9 -9 15 0 24 7 7 12 41 12 83 0 42 -5 76 -12 83 -8 8 -49 12 -120 12 l-108
0 0 -135z"/>
<path d="M2832 1318 c-17 -17 -17 -229 0 -246 16 -16 120 -16 136 0 10 10 17
10 32 0 11 -6 31 -12 46 -12 l25 0 -20 27 c-19 23 -20 28 -6 43 11 12 15 39
15 92 0 112 5 108 -114 108 -66 0 -106 -4 -114 -12z m176 -95 l-3 -58 -45 4
c-44 3 -45 3 -27 -16 21 -24 13 -33 -30 -33 l-33 0 0 80 0 80 70 0 71 0 -3
-57z"/>
<path d="M3110 1207 c0 -82 4 -127 12 -135 16 -16 200 -16 216 0 8 8 12 53 12
135 l0 123 -25 0 -25 0 0 -105 0 -105 -70 0 -70 0 0 105 0 105 -25 0 -25 0 0
-123z"/>
<path d="M3570 1305 c0 -23 3 -25 50 -25 l50 0 0 -110 0 -110 25 0 25 0 0 110
0 110 50 0 c47 0 50 2 50 25 l0 25 -125 0 -125 0 0 -25z"/>
<path d="M3850 1311 c-5 -11 -10 -62 -10 -113 0 -134 4 -138 129 -138 62 0
101 4 109 12 17 17 17 229 0 246 -8 8 -48 12 -115 12 -91 0 -103 -2 -113 -19z
m184 -47 c3 -9 6 -45 6 -80 l0 -64 -70 0 -70 0 0 80 0 80 64 0 c49 0 65 -4 70
-16z"/>
<path d="M4130 1207 c0 -82 4 -127 12 -135 16 -16 200 -16 216 0 8 8 12 53 12
135 l0 123 -25 0 -25 0 0 -105 0 -105 -70 0 -70 0 0 105 0 105 -25 0 -25 0 0
-123z"/>
<path d="M4410 1195 l0 -135 25 0 c23 0 25 4 25 40 l0 40 42 0 c32 0 49 -6 70
-27 15 -15 28 -33 28 -40 0 -7 11 -13 25 -13 21 0 25 5 25 28 0 15 -5 33 -12
40 -8 8 -8 15 1 26 8 9 11 42 9 93 l-3 78 -117 3 -118 3 0 -136z"/>
<path d="M973 998 c-6 -7 -15 -28 -22 -47 -19 -59 -12 -61 195 -61 174 0 183
1 189 20 4 12 -1 36 -12 58 l-18 37 -161 3 c-121 2 -164 -1 -171 -10z m327
-27 c5 -11 10 -29 10 -40 0 -20 -5 -21 -170 -21 -165 0 -170 1 -170 21 0 11 5
29 10 40 10 17 23 19 160 19 137 0 150 -2 160 -19z"/>
</g>
    <style>
        path { fill: #000; }
        @media (prefers-color-scheme: dark) {
            path { fill: #FFF; }
        }
    </style>
</svg>
